<?xml version="1.0" encoding="UTF-8"?>
<svg id="a" xmlns="http://www.w3.org/2000/svg" version="1.1" viewBox="0 0 42 42">
  <!-- Generator: Adobe Illustrator 30.3.0, SVG Export Plug-In . SVG Version: 2.1.3 Build 182)  -->
  <defs>
    <style>
      .st0 {
        fill: #fff;
      }

      .st1 {
        fill: #a9bacd;
      }
    </style>
  </defs>
  <path id="b" class="st1" d="M34.5,0H7.5C3.36,0,0,3.36,0,7.5v27c0,4.14,3.36,7.5,7.5,7.5h27c4.14,0,7.5-3.36,7.5-7.5V7.5c0-4.14-3.36-7.5-7.5-7.5Z"/>
  <g id="c">
    <g id="d">
      <path id="e" class="st0" d="M30.14,18.66c-.49-4.73-3.63-7.51-9.25-7.51-5.13,0-9.17,3.7-9.17,9.65s3.68,9.71,9.76,9.71c4.85,0,8.25-2.86,8.79-7.61h-5.8c-.23,1.76-1.15,3.12-3.09,3.12-3.07,0-3.63-2.43-3.63-5.01,0-3.55,1.28-5.36,3.4-5.36,1.89,0,3.09,1.1,3.27,3.01,0,0,5.72,0,5.72,0Z"/>
    </g>
  </g>
</svg>