<?xml version="1.0" encoding="UTF-8"?>
<svg id="Camada_1" xmlns="http://www.w3.org/2000/svg" version="1.1" xmlns:xlink="http://www.w3.org/1999/xlink" viewBox="0 0 42 42">
  <!-- Generator: Adobe Illustrator 30.3.0, SVG Export Plug-In . SVG Version: 2.1.3 Build 182)  -->
  <defs>
    <style>
      .st0 {
        fill: url(#Gradiente_sem_nome_5);
      }

      .st1, .st2 {
        isolation: isolate;
      }

      .st2 {
        fill: #fff;
        mix-blend-mode: screen;
      }
    </style>
    <linearGradient id="Gradiente_sem_nome_5" data-name="Gradiente sem nome 5" x1="8.08" y1="-1.49" x2="33.92" y2="43.49" gradientUnits="userSpaceOnUse">
      <stop offset="0" stop-color="#927be5"/>
      <stop offset="1" stop-color="#512bd4"/>
    </linearGradient>
  </defs>
  <g class="st1">
    <path id="b" class="st0" d="M34.5,0H7.5C3.36,0,0,3.36,0,7.5v27c0,4.14,3.36,7.5,7.5,7.5h27c4.14,0,7.5-3.36,7.5-7.5V7.5c0-4.14-3.36-7.5-7.5-7.5Z"/>
    <path id="e" class="st2" d="M9.71,17.78v6.45c0,.88.71,1.61,1.61,1.61h0c.88,0,1.61-.73,1.61-1.61h0c0-.88.73-1.61,1.61-1.61s1.61.73,1.61,1.61c0,2.67-2.17,4.84-4.84,4.84s-4.84-2.17-4.84-4.84v-6.45c0-2.67,2.17-4.84,4.84-4.84s4.84,2.17,4.84,4.84c0,.88-.73,1.61-1.61,1.61s-1.61-.73-1.61-1.61h0c0-.88-.73-1.61-1.61-1.61s-1.61.73-1.61,1.61h0ZM35.51,24.22c0,.88-.71,1.61-1.61,1.61h-1.61v1.61c0,.43-.17.84-.47,1.14-.62.62-1.66.62-2.28,0h0c-.3-.3-.47-.71-.47-1.14v-1.61h-3.22v1.61c0,.88-.71,1.61-1.61,1.61h0c-.88,0-1.61-.71-1.61-1.61h0v-1.61h-1.61c-.88,0-1.61-.73-1.61-1.61s.73-1.61,1.61-1.61h1.61v-3.22h-1.61c-.88,0-1.61-.73-1.61-1.61s.73-1.61,1.61-1.61h1.61v-1.61c0-.88.73-1.61,1.61-1.61s1.61.73,1.61,1.61v1.61h3.22v-1.61c0-.88.73-1.61,1.61-1.61s1.61.73,1.61,1.61v1.61h1.61c.43,0,.84.17,1.14.47.62.62.62,1.66,0,2.28h0c-.3.3-.71.47-1.14.47h-1.61v3.22h1.61c.88,0,1.61.73,1.61,1.61h0ZM29.06,19.39h-3.22v3.22h3.22v-3.22Z"/>
  </g>
</svg>