<?xml version="1.0" encoding="UTF-8"?>
<svg id="a" xmlns="http://www.w3.org/2000/svg" version="1.1" viewBox="0 0 42 42">
  <!-- Generator: Adobe Illustrator 30.3.0, SVG Export Plug-In . SVG Version: 2.1.3 Build 182)  -->
  <defs>
    <style>
      .st0 {
        fill: #fff;
      }

      .st1 {
        fill: #1c88c7;
      }

      .st2 {
        fill: #1b73ba;
      }
    </style>
  </defs>
  <path id="b" class="st2" d="M34.5,0H7.5C3.36,0,0,3.36,0,7.5v27c0,4.14,3.36,7.5,7.5,7.5h27c4.14,0,7.5-3.36,7.5-7.5V7.5c0-4.14-3.36-7.5-7.5-7.5Z"/>
  <path class="st1" d="M21,0h13.5C38.64,0,42,3.36,42,7.5v27c0,4.14-3.36,7.5-7.5,7.5h-13.5V0h0Z"/>
  <path class="st0" d="M29.66,11.32H12.31l.47,3.39h8.23l-8.1,3.48.47,3.27h11.94l-.43,4.57-4.04.79-3.67-.94-.28-2.6h-3.36l.46,5.4,7.22,2.01,6.92-2.2.88-10.55h-7.31l7.98-3.31v-3.31h-.03Z"/>
</svg>