<?xml version="1.0" encoding="UTF-8"?>
<svg id="a" xmlns="http://www.w3.org/2000/svg" version="1.1" viewBox="0 0 42 42">
  <!-- Generator: Adobe Illustrator 30.3.0, SVG Export Plug-In . SVG Version: 2.1.3 Build 182)  -->
  <defs>
    <style>
      .st0 {
        fill: #1e1e1e;
      }

      .st1 {
        fill: #ff7262;
      }

      .st2 {
        fill: #a259ff;
      }

      .st3 {
        fill: #1abcfe;
      }

      .st4 {
        fill: #f24e1e;
      }

      .st5 {
        fill: #0acf83;
      }
    </style>
  </defs>
  <path id="b" class="st0" d="M34.5,0H7.5C3.36,0,0,3.36,0,7.5v27c0,4.14,3.36,7.5,7.5,7.5h27c4.14,0,7.5-3.36,7.5-7.5V7.5c0-4.14-3.36-7.5-7.5-7.5Z"/>
  <g>
    <path id="c" class="st5" d="M16.81,33.57c2.31,0,4.19-1.87,4.19-4.19v-4.19h-4.19c-2.31,0-4.19,1.87-4.19,4.19s1.87,4.19,4.19,4.19Z"/>
    <path id="d" class="st2" d="M12.62,21.01c0-2.31,1.87-4.19,4.19-4.19h4.19v8.38h-4.19c-2.31,0-4.19-1.87-4.19-4.19h0Z"/>
    <path id="e" class="st4" d="M12.62,12.62c0-2.31,1.87-4.19,4.19-4.19h4.19v8.38h-4.19c-2.31,0-4.19-1.87-4.19-4.19h0Z"/>
    <path id="f" class="st1" d="M21,8.44h4.19c2.31,0,4.19,1.87,4.19,4.19s-1.87,4.19-4.19,4.19h-4.19v-8.38h0Z"/>
    <path id="g" class="st3" d="M29.38,21.01c0,2.31-1.87,4.19-4.19,4.19s-4.19-1.87-4.19-4.19,1.87-4.19,4.19-4.19,4.19,1.87,4.19,4.19Z"/>
  </g>
</svg>