<?xml version="1.0" encoding="UTF-8"?>
<svg id="a" xmlns="http://www.w3.org/2000/svg" version="1.1" viewBox="0 0 42 42">
  <!-- Generator: Adobe Illustrator 30.3.0, SVG Export Plug-In . SVG Version: 2.1.3 Build 182)  -->
  <defs>
    <style>
      .st0 {
        fill: #fff;
      }

      .st1 {
        fill: #de4c36;
      }
    </style>
  </defs>
  <path id="b" class="st1" d="M34.5,0H7.5C3.36,0,0,3.36,0,7.5v27c0,4.14,3.36,7.5,7.5,7.5h27c4.14,0,7.5-3.36,7.5-7.5V7.5c0-4.14-3.36-7.5-7.5-7.5Z"/>
  <path class="st0" d="M33.06,19.89l-10.98-10.98c-.64-.64-1.66-.64-2.28,0l-2.28,2.28,2.9,2.9c.67-.23,1.44-.08,1.98.46s.69,1.31.45,1.99l2.79,2.79c.68-.23,1.45-.09,1.99.45.75.75.75,1.97,0,2.72s-1.97.75-2.72,0c-.56-.56-.7-1.4-.42-2.1l-2.6-2.6v6.84c.18.1.36.22.51.37.75.75.75,1.97,0,2.72s-1.97.75-2.72,0-.75-1.97,0-2.72c.18-.18.4-.32.64-.42v-6.9c-.24-.1-.45-.24-.64-.42-.57-.57-.71-1.4-.41-2.11l-2.85-2.85-7.52,7.52c-.64.64-.64,1.66,0,2.29l10.98,10.98c.64.64,1.66.64,2.28,0l10.93-10.93c.64-.64.64-1.66,0-2.29"/>
</svg>