<?xml version="1.0" encoding="UTF-8"?>
<svg id="a" xmlns="http://www.w3.org/2000/svg" version="1.1" viewBox="0 0 42 42">
  <!-- Generator: Adobe Illustrator 30.3.0, SVG Export Plug-In . SVG Version: 2.1.3 Build 182)  -->
  <defs>
    <style>
      .st0 {
        fill: #1b1f23;
        fill-rule: evenodd;
      }

      .st1 {
        fill: #fff;
      }
    </style>
  </defs>
  <path id="b" class="st1" d="M34.5,0H7.5C3.36,0,0,3.36,0,7.5v27c0,4.14,3.36,7.5,7.5,7.5h27c4.14,0,7.5-3.36,7.5-7.5V7.5c0-4.14-3.36-7.5-7.5-7.5Z"/>
  <path class="st0" d="M21,8.43c-7.13,0-12.88,5.77-12.88,12.88,0,5.7,3.68,10.52,8.8,12.23.65.12.88-.27.88-.61,0-.3-.02-1.32-.02-2.4-3.23.6-4.08-.8-4.33-1.52-.15-.38-.77-1.52-1.32-1.82-.45-.25-1.1-.84-.02-.85,1.02-.02,1.74.93,1.98,1.32,1.15,1.95,3,1.4,3.76,1.07.12-.84.45-1.4.82-1.72-2.87-.32-5.86-1.43-5.86-6.36,0-1.4.5-2.56,1.32-3.45-.13-.32-.58-1.65.13-3.41,0,0,1.08-.34,3.55,1.32,1.03-.29,2.13-.43,3.22-.43s2.2.15,3.22.43c2.46-1.68,3.55-1.32,3.55-1.32.71,1.78.26,3.1.13,3.41.82.9,1.32,2.04,1.32,3.45,0,4.95-3,6.04-5.88,6.36.47.4.87,1.17.87,2.38,0,1.72-.02,3.11-.02,3.55,0,.34.25.74.88.61,5.09-1.7,8.78-6.53,8.78-12.23,0-7.13-5.77-12.88-12.88-12.88h0,.01Z"/>
</svg>