<?xml version="1.0" encoding="UTF-8"?>
<svg id="a" xmlns="http://www.w3.org/2000/svg" version="1.1" viewBox="0 0 42 42">
  <!-- Generator: Adobe Illustrator 30.3.0, SVG Export Plug-In . SVG Version: 2.1.3 Build 182)  -->
  <defs>
    <style>
      .st0 {
        fill: #ef652a;
      }

      .st1 {
        fill: #fff;
      }

      .st2 {
        fill: #e34f26;
      }
    </style>
  </defs>
  <path id="b" class="st2" d="M34.5,0H7.5C3.36,0,0,3.36,0,7.5v27c0,4.14,3.36,7.5,7.5,7.5h27c4.14,0,7.5-3.36,7.5-7.5V7.5c0-4.14-3.36-7.5-7.5-7.5Z"/>
  <path class="st0" d="M21,0h13.5C38.64,0,42,3.36,42,7.5v27c0,4.14-3.36,7.5-7.5,7.5h-13.5V0h0Z"/>
  <path class="st1" d="M29.24,14.7l.32-3.38H12.44l.95,10.35h11.82l-.46,4.41-3.79,1.02-3.84-1.11-.2-2.63h-3.39l.46,5.37,6.97,1.94,7.03-1.94.95-10.5h-12.41l-.36-3.54s13.07,0,13.07,0Z"/>
</svg>