<?xml version="1.0" encoding="UTF-8"?>
<svg id="a" data-name="Camada 1" xmlns="http://www.w3.org/2000/svg" viewBox="0 0 42 42">
  <path id="b" data-name="Vector" d="M34.5,0H7.5C3.36,0,0,3.36,0,7.5v27c0,4.14,3.36,7.5,7.5,7.5h27c4.14,0,7.5-3.36,7.5-7.5V7.5c0-4.14-3.36-7.5-7.5-7.5Z" fill="#3a75b0"/>
  <g>
    <path d="M17.38,26.54s-1.04.61.74.81c2.16.25,3.26.21,5.64-.24,0,0,.63.39,1.5.73-5.34,2.29-12.08-.13-7.89-1.3M16.73,23.56s-1.17.86.62,1.05c2.31.24,4.13.26,7.28-.35,0,0,.44.44,1.12.68-6.45,1.89-13.64.15-9.02-1.38" fill="#fff"/>
    <path d="M22.23,18.5c1.31,1.51-.35,2.88-.35,2.88,0,0,3.34-1.72,1.81-3.88-1.43-2.01-2.53-3.01,3.41-6.46,0,0-9.33,2.33-4.87,7.47" fill="#e76f00"/>
    <path d="M29.28,28.75s.77.64-.85,1.13c-3.08.93-12.82,1.21-15.52.04-.97-.42.85-1.01,1.42-1.13.6-.13.94-.11.94-.11-1.08-.76-6.99,1.5-3,2.14,10.88,1.76,19.83-.79,17.01-2.07M17.88,20.47s-4.95,1.18-1.75,1.6c1.35.18,4.04.14,6.55-.07,2.05-.17,4.11-.54,4.11-.54,0,0-.72.31-1.25.67-5.03,1.32-14.75.71-11.95-.65,2.37-1.14,4.29-1.01,4.29-1.01M26.77,25.44c5.11-2.66,2.75-5.21,1.1-4.87-.4.08-.58.16-.58.16,0,0,.15-.24.44-.34,3.26-1.15,5.78,3.39-1.05,5.18,0,0,.08-.07.1-.13" fill="#fff"/>
    <path d="M23.69,5.46s2.83,2.83-2.69,7.19c-4.43,3.49-1.01,5.49,0,7.76-2.58-2.33-4.48-4.38-3.21-6.29,1.87-2.8,7.04-4.16,5.9-8.66" fill="#e76f00"/>
    <path d="M18.38,32.64c4.91.31,12.45-.17,12.63-2.5,0,0-.34.88-4.06,1.58-4.19.79-9.36.7-12.42.19,0,0,.63.52,3.85.73" fill="#fff"/>
  </g>
</svg>