<?xml version="1.0" encoding="UTF-8"?>
<svg id="a" data-name="Camada 1" xmlns="http://www.w3.org/2000/svg" viewBox="0 0 42 42">
  <rect width="42" height="42" rx="7.5" ry="7.5" fill="#f7df1e"/>
  <path d="M28.21,32.81c.85,1.38,1.95,2.4,3.89,2.4,1.64,0,2.68-.82,2.68-1.95,0-1.35-1.07-1.83-2.87-2.62l-.99-.42c-2.85-1.21-4.74-2.73-4.74-5.95,0-2.96,2.26-5.21,5.78-5.21,2.51,0,4.31.87,5.61,3.16l-3.07,1.97c-.68-1.21-1.41-1.69-2.54-1.69s-1.89.73-1.89,1.69c0,1.18.73,1.66,2.43,2.4l.99.42c3.35,1.44,5.25,2.9,5.25,6.2,0,3.55-2.79,5.5-6.54,5.5s-6.03-1.75-7.19-4.04l3.21-1.86ZM14.27,33.15c.62,1.1,1.18,2.03,2.54,2.03s2.11-.51,2.11-2.48v-13.42h3.95v13.47c0,4.09-2.4,5.95-5.89,5.95-3.16,0-4.99-1.64-5.92-3.61l3.21-1.94Z"/>
</svg>