<?xml version="1.0" encoding="UTF-8"?>
<svg id="a" xmlns="http://www.w3.org/2000/svg" version="1.1" xmlns:xlink="http://www.w3.org/1999/xlink" viewBox="0 0 42 42">
  <!-- Generator: Adobe Illustrator 30.3.0, SVG Export Plug-In . SVG Version: 2.1.3 Build 182)  -->
  <defs>
    <style>
      .st0 {
        fill: url(#Gradiente_sem_nome);
      }

      .st1 {
        fill: url(#Gradiente_sem_nome_2);
        fill-rule: evenodd;
      }
    </style>
    <linearGradient id="Gradiente_sem_nome" data-name="Gradiente sem nome" x1="-931.38" y1="517.91" x2="-931.32" y2="517.91" gradientTransform="translate(158267.94 64037.42) rotate(51.1) scale(160.18)" gradientUnits="userSpaceOnUse">
      <stop offset="0" stop-color="#fff"/>
      <stop offset="1" stop-color="#fff" stop-opacity="0"/>
    </linearGradient>
    <linearGradient id="Gradiente_sem_nome_2" data-name="Gradiente sem nome 2" x1="-932.84" y1="513.99" x2="-932.77" y2="513.99" gradientTransform="translate(76489.8 140055.75) rotate(90.22) scale(149.81)" gradientUnits="userSpaceOnUse">
      <stop offset="0" stop-color="#fff"/>
      <stop offset="1" stop-color="#fff" stop-opacity="0"/>
    </linearGradient>
  </defs>
  <path id="b" d="M34.5,0H7.5C3.36,0,0,3.36,0,7.5v27c0,4.14,3.36,7.5,7.5,7.5h27c4.14,0,7.5-3.36,7.5-7.5V7.5c0-4.14-3.36-7.5-7.5-7.5Z"/>
  <g>
    <path class="st0" d="M31.64,32.7l-15.33-19.74h-2.89v13.73h2.32v-10.8l14.1,18.2c.63-.43,1.25-.89,1.82-1.39h-.01Z"/>
    <path class="st1" d="M25.05,12.96h2.29v13.73h-2.29v-13.73Z"/>
  </g>
</svg>