<?xml version="1.0" encoding="UTF-8"?>
<svg id="a" data-name="Camada 1" xmlns="http://www.w3.org/2000/svg" viewBox="0 0 42 42">
  <path id="b" data-name="Vector" d="M34.5,0H7.5C3.36,0,0,3.36,0,7.5v27c0,4.14,3.36,7.5,7.5,7.5h27c4.14,0,7.5-3.36,7.5-7.5V7.5c0-4.14-3.36-7.5-7.5-7.5Z" fill="#1e425f"/>
  <path id="c" data-name="Vector 2" d="M14.67,11.15c5.49,0,8.58,2.57,8.58,6.88,0,5.03-4.19,7.05-8.12,7.05h-2.66v5.43h-5.37V11.15h7.57ZM12.47,15.74v4.74h2.37c1.65,0,2.8-.66,2.8-2.34,0-1.53-.98-2.4-2.69-2.4h-2.49Z" fill="#31a8ff"/>
  <path id="d" data-name="Vector 3" d="M24.34,29.56l.03-4.48c1.53,1.01,3.67,1.65,5.14,1.65,1.01,0,1.47-.29,1.47-.81,0-.58-.64-.81-1.85-1.18-2.34-.69-4.91-1.65-4.91-4.71s2.57-4.85,6.3-4.85c1.76,0,3.21.26,4.48.81l-.03,4.28c-1.01-.61-3.01-1.16-4.31-1.16-.95,0-1.33.29-1.33.72,0,.52.46.66,1.85,1.1,2.69.81,4.94,1.68,4.94,4.83s-2.46,5.03-6.3,5.03c-2.02,0-3.93-.35-5.49-1.21Z" fill="#31a8ff"/>
</svg>