<?xml version="1.0" encoding="UTF-8"?>
<svg id="a" xmlns="http://www.w3.org/2000/svg" version="1.1" viewBox="0 0 42 42">
  <!-- Generator: Adobe Illustrator 30.3.0, SVG Export Plug-In . SVG Version: 2.1.3 Build 182)  -->
  <defs>
    <style>
      .st0 {
        stroke-linejoin: bevel;
      }

      .st0, .st1, .st2, .st3 {
        stroke: #fff;
      }

      .st0, .st2 {
        fill: none;
        stroke-linecap: round;
      }

      .st4 {
        fill: #336791;
      }

      .st5 {
        fill: #699dc9;
      }

      .st1 {
        stroke-width: .22px;
      }

      .st1, .st3 {
        fill: #fff;
      }

      .st6 {
        fill: #336792;
        stroke: #336791;
        stroke-width: 1.96px;
      }

      .st2 {
        stroke-linejoin: round;
      }

      .st3 {
        stroke-width: .11px;
      }
    </style>
  </defs>
  <path id="b" class="st5" d="M34.5,0H7.5C3.36,0,0,3.36,0,7.5v27c0,4.14,3.36,7.5,7.5,7.5h27c4.14,0,7.5-3.36,7.5-7.5V7.5c0-4.14-3.36-7.5-7.5-7.5Z"/>
  <g id="c">
    <path class="st6" d="M27.57,27.21c.17-1.45.12-1.67,1.2-1.43l.27.02c.83.04,1.92-.13,2.55-.43,1.38-.63,2.19-1.7.83-1.43-3.09.63-3.3-.41-3.3-.41,3.26-4.84,4.63-10.98,3.44-12.49-3.21-4.1-8.76-2.16-8.85-2.11h-.03c-.61-.12-1.29-.2-2.06-.21-1.4-.02-2.46.36-3.26.97,0,0-9.91-4.09-9.45,5.13.1,1.96,2.81,14.84,6.04,10.95,1.18-1.43,2.33-2.62,2.33-2.62.57.38,1.24.57,1.96.5l.05-.05c-.02.18,0,.35.02.55-.83.93-.59,1.09-2.26,1.44-1.69.35-.69.96-.05,1.12.78.2,2.6.47,3.82-1.24l-.05.19c.33.26.3,1.88.35,3.03.05,1.15.12,2.24.36,2.87.23.63.51,2.28,2.7,1.81,1.83-.39,3.23-.95,3.35-6.2"/>
    <path class="st4" d="M32.42,23.95c-3.09.63-3.3-.41-3.3-.41,3.26-4.84,4.63-10.98,3.44-12.49-3.21-4.1-8.76-2.16-8.85-2.11h-.03c-.61-.12-1.29-.2-2.06-.21-1.4-.02-2.46.36-3.26.97,0,0-9.91-4.09-9.45,5.13.1,1.96,2.81,14.84,6.04,10.95,1.18-1.43,2.33-2.62,2.33-2.62.57.38,1.24.57,1.96.5l.06-.05c-.02.18,0,.35.02.55-.83.93-.59,1.09-2.26,1.44-1.69.35-.69.96-.05,1.12.78.2,2.6.47,3.82-1.24l-.05.19c.33.26.55,1.7.52,3-.04,1.3-.06,2.2.19,2.9.26.7.51,2.28,2.7,1.81,1.83-.39,2.78-1.41,2.91-3.1.09-1.2.3-1.02.32-2.11l.17-.51c.2-1.64.03-2.16,1.15-1.92l.27.02c.83.04,1.92-.13,2.55-.43,1.38-.63,2.19-1.7.83-1.43h0v.04h.03Z"/>
    <path class="st2" d="M20.97,24.9c-.08,3.04.02,6.1.32,6.85s.93,2.19,3.12,1.73c1.83-.39,2.5-1.15,2.78-2.83.21-1.23.62-4.66.67-5.36"/>
    <path class="st2" d="M18.35,9.66s-9.92-4.06-9.46,5.16c.1,1.96,2.81,14.84,6.04,10.95,1.18-1.43,2.25-2.54,2.25-2.54"/>
    <path class="st2" d="M23.7,8.93c-.34.11,5.52-2.14,8.84,2.11,1.17,1.51-.19,7.65-3.44,12.49"/>
    <path class="st0" d="M29.1,23.51s.21,1.04,3.3.41c1.36-.28.54.78-.83,1.43-1.12.52-3.65.65-3.69-.07-.11-1.87,1.33-1.29,1.22-1.77-.09-.42-.73-.83-1.16-1.87-.37-.89-5.08-7.79,1.3-6.77.23-.05-1.67-6.08-7.65-6.17-5.98-.1-5.78,7.35-5.78,7.35"/>
    <path class="st2" d="M19.29,24.15c-.83.93-.59,1.09-2.26,1.44-1.69.35-.69.96-.05,1.12.78.2,2.6.47,3.82-1.24.37-.52,0-1.36-.51-1.57-.25-.1-.58-.23-1,.24h0Z"/>
    <path class="st2" d="M19.24,24.14c-.08-.55.18-1.19.46-1.96.42-1.14,1.41-2.29.62-5.91-.58-2.7-4.51-.56-4.51-.2s.18,1.86-.07,3.59c-.32,2.27,1.45,4.19,3.46,3.99"/>
    <path class="st1" d="M18.31,16.01c-.02.12.23.46.55.5s.59-.22.61-.34-.23-.26-.55-.31c-.32-.04-.59.02-.61.14h0Z"/>
    <path class="st3" d="M28.1,15.76c.02.12-.23.46-.55.5s-.59-.22-.61-.34c-.02-.12.23-.26.55-.31s.59.02.61.14h0Z"/>
    <path class="st2" d="M29.25,14.89c.05.98-.21,1.65-.24,2.7-.05,1.52.72,3.26-.44,5"/>
  </g>
</svg>