<?xml version="1.0" encoding="UTF-8"?>
<svg id="a" xmlns="http://www.w3.org/2000/svg" version="1.1" xmlns:xlink="http://www.w3.org/1999/xlink" viewBox="0 0 42 42">
  <!-- Generator: Adobe Illustrator 30.3.0, SVG Export Plug-In . SVG Version: 2.1.3 Build 182)  -->
  <defs>
    <style>
      .st0 {
        fill: url(#Gradiente_sem_nome_2);
      }

      .st1 {
        fill: #fff;
      }

      .st2 {
        fill: #1e425f;
      }

      .st3 {
        fill: url(#Gradiente_sem_nome);
      }
    </style>
    <linearGradient id="Gradiente_sem_nome" data-name="Gradiente sem nome" x1="340.96" y1="-342.12" x2="353.45" y2="-354.66" gradientTransform="translate(-330.17 -331.45) scale(1 -1)" gradientUnits="userSpaceOnUse">
      <stop offset="0" stop-color="#387eb8"/>
      <stop offset="1" stop-color="#366994"/>
    </linearGradient>
    <linearGradient id="Gradiente_sem_nome_2" data-name="Gradiente sem nome 2" x1="348.55" y1="-350.14" x2="361.94" y2="-362.97" gradientTransform="translate(-330.17 -331.45) scale(1 -1)" gradientUnits="userSpaceOnUse">
      <stop offset="0" stop-color="#ffe052"/>
      <stop offset="1" stop-color="#ffc331"/>
    </linearGradient>
  </defs>
  <path id="b" class="st2" d="M34.5,0H7.5C3.36,0,0,3.36,0,7.5v27c0,4.14,3.36,7.5,7.5,7.5h27c4.14,0,7.5-3.36,7.5-7.5V7.5c0-4.14-3.36-7.5-7.5-7.5Z"/>
  <g>
    <circle class="st1" cx="17.59" cy="11.47" r="1.16"/>
    <circle class="st1" cx="24.41" cy="30.53" r="1.16"/>
    <path class="st3" d="M20.96,8.43c-5.94,0-5.99,2.31-5.99,2.77v2.88h6.11v.87h-8.54c-1.82,0-4.1,1.11-4.1,5.99,0,4.5,1.78,6.23,3.57,6.23h2.13v-3c0-1.26.62-3.57,3.52-3.57h6.06c.9,0,3.4-.39,3.4-3.29v-5.54c0-.72-.12-3.35-6.18-3.35h0ZM17.59,10.36c.61,0,1.1.5,1.1,1.1s-.5,1.1-1.1,1.1-1.1-.5-1.1-1.1.5-1.1,1.1-1.1Z"/>
    <path class="st0" d="M21.04,33.57c5.93,0,6-2.34,6-2.77v-2.88h-6.12v-.87h8.54c1.83,0,4.1-1.13,4.1-5.99,0-5.33-2.41-6.23-3.57-6.23h-2.13v3c0,1.26-.6,3.57-3.52,3.57h-6.06c-.89,0-3.4.43-3.4,3.29v5.54c0,1.19.73,3.35,6.18,3.35h0ZM24.41,31.64c-.61,0-1.1-.5-1.1-1.1s.5-1.1,1.1-1.1,1.1.5,1.1,1.1-.5,1.1-1.1,1.1Z"/>
  </g>
</svg>