<?xml version="1.0" encoding="UTF-8"?>
<svg id="a" data-name="Camada 1" xmlns="http://www.w3.org/2000/svg" xmlns:xlink="http://www.w3.org/1999/xlink" viewBox="0 0 42 42">
  <defs>
    <clipPath id="c">
      <rect x="7.19" y="12.71" width="27.63" height="16.58" fill="none"/>
    </clipPath>
  </defs>
  <path id="b" data-name="Vector" d="M34.5,0H7.5C3.36,0,0,3.36,0,7.5v27c0,4.14,3.36,7.5,7.5,7.5h27c4.14,0,7.5-3.36,7.5-7.5V7.5c0-4.14-3.36-7.5-7.5-7.5Z" fill="#030712"/>
  <g clip-path="url(#c)">
    <path d="M21,12.71c-3.68,0-5.99,1.84-6.91,5.53,1.38-1.84,2.99-2.53,4.83-2.07,1.05.26,1.8,1.03,2.63,1.87,1.35,1.37,2.92,2.97,6.35,2.97,3.68,0,5.99-1.84,6.91-5.53-1.38,1.84-2.99,2.53-4.83,2.07-1.05-.26-1.8-1.03-2.63-1.87-1.35-1.37-2.92-2.97-6.35-2.97ZM14.09,21c-3.68,0-5.99,1.84-6.91,5.53,1.38-1.84,2.99-2.53,4.83-2.07,1.05.26,1.8,1.03,2.63,1.87,1.35,1.37,2.92,2.97,6.35,2.97,3.68,0,5.99-1.84,6.91-5.53-1.38,1.84-2.99,2.53-4.83,2.07-1.05-.26-1.8-1.03-2.63-1.87-1.35-1.37-2.92-2.97-6.35-2.97Z" fill="#38bdf8" fill-rule="evenodd"/>
  </g>
</svg>