<?xml version="1.0" encoding="UTF-8"?>
<svg id="a" data-name="Camada 1" xmlns="http://www.w3.org/2000/svg" viewBox="0 0 42 42">
  <rect width="42" height="42" rx="7.5" ry="7.5" fill="#007acc"/>
  <path d="M9.21,21.07v1.71h5.46v15.54h3.87v-15.54h5.46v-1.68c0-.94,0-1.71-.04-1.73,0-.03-3.33-.04-7.37-.04l-7.35.03v1.72h-.03s0-.01,0-.01ZM33.75,19.32c1.07.25,1.89.73,2.62,1.5.39.42.97,1.15,1.01,1.34,0,.06-1.82,1.29-2.92,1.97-.04.03-.21-.15-.38-.42-.55-.78-1.1-1.11-1.97-1.18-1.26-.08-2.1.58-2.1,1.68,0,.34.06.53.19.8.28.58.81.92,2.44,1.64,3,1.29,4.31,2.14,5.09,3.36.89,1.36,1.09,3.51.49,5.11-.67,1.75-2.31,2.94-4.65,3.33-.73.13-2.41.11-3.2-.03-1.68-.32-3.29-1.16-4.27-2.24-.39-.42-1.13-1.54-1.09-1.62l.4-.25,1.58-.91,1.19-.69.27.37c.35.55,1.12,1.28,1.58,1.53,1.36.7,3.19.61,4.09-.21.39-.36.56-.73.56-1.26,0-.48-.07-.7-.32-1.07-.34-.46-1.01-.84-2.9-1.68-2.17-.92-3.1-1.51-3.96-2.42-.49-.55-.95-1.4-1.15-2.1-.16-.61-.21-2.1-.06-2.7.45-2.1,2.04-3.57,4.31-3.99.73-.15,2.47-.08,3.19.1l-.02.02h0Z" fill="#fff"/>
</svg>