<?xml version="1.0" encoding="UTF-8"?>
<svg xmlns="http://www.w3.org/2000/svg" xmlns:xlink="http://www.w3.org/1999/xlink" viewBox="0 0 42 42">
  <defs>
    <mask id="d" data-name="mask" x="8.36" y="8.43" width="25.29" height="25.14" maskUnits="userSpaceOnUse">
      <g id="e" data-name="mask0">
        <path d="M26.29,33.46c.4.16.85.15,1.25-.05l5.2-2.5c.55-.26.89-.82.89-1.42V12.51c0-.61-.35-1.16-.89-1.42l-5.2-2.5c-.53-.25-1.14-.19-1.61.14-.07.05-.13.1-.19.16l-9.96,9.09-4.34-3.29c-.4-.31-.97-.28-1.34.06l-1.39,1.27c-.46.42-.46,1.14,0,1.56l3.76,3.43-3.76,3.43c-.46.42-.46,1.14,0,1.56l1.39,1.27c.38.34.94.37,1.34.06l4.34-3.29,9.96,9.09c.16.16.34.28.54.35ZM27.33,15.26l-7.56,5.74,7.56,5.74v-11.47Z" fill="#fff" fill-rule="evenodd"/>
      </g>
    </mask>
    <linearGradient id="f" data-name="Gradiente sem nome 14" x1="297.65" y1="-366.39" x2="297.65" y2="-391.53" gradientTransform="translate(-276.66 -357.96) scale(1 -1)" gradientUnits="userSpaceOnUse">
      <stop offset="0" stop-color="#fff"/>
      <stop offset="1" stop-color="#fff" stop-opacity="0"/>
    </linearGradient>
  </defs>
  <g isolation="isolate">
    <g id="a">
      <path id="b" d="M34.5,0H7.5C3.36,0,0,3.36,0,7.5v27c0,4.14,3.36,7.5,7.5,7.5h27c4.14,0,7.5-3.36,7.5-7.5V7.5c0-4.14-3.36-7.5-7.5-7.5Z" fill="#0b131e"/>
      <g>
        <g id="c" data-name="mask0">
          <path d="M26.29,33.46c.4.16.85.15,1.25-.05l5.2-2.5c.55-.26.89-.82.89-1.42V12.51c0-.61-.35-1.16-.89-1.42l-5.2-2.5c-.53-.25-1.14-.19-1.61.14-.07.05-.13.1-.19.16l-9.96,9.09-4.34-3.29c-.4-.31-.97-.28-1.34.06l-1.39,1.27c-.46.42-.46,1.14,0,1.56l3.76,3.43-3.76,3.43c-.46.42-.46,1.14,0,1.56l1.39,1.27c.38.34.94.37,1.34.06l4.34-3.29,9.96,9.09c.16.16.34.28.54.35ZM27.33,15.26l-7.56,5.74,7.56,5.74v-11.47Z" fill="#fff" fill-rule="evenodd"/>
        </g>
        <g mask="url(#d)">
          <g>
            <path d="M32.75,11.09l-5.21-2.51c-.6-.29-1.32-.17-1.8.31l-17.05,15.54c-.46.42-.46,1.14,0,1.56l1.39,1.27c.38.34.94.37,1.34.06l20.53-15.57c.69-.52,1.68-.03,1.68.83v-.06c0-.61-.35-1.16-.89-1.42Z" fill="#0065a9"/>
            <path d="M32.75,30.91l-5.21,2.51c-.6.29-1.32.17-1.8-.31l-17.05-15.54c-.46-.42-.46-1.14,0-1.56l1.39-1.27c.38-.34.94-.37,1.34-.06l20.53,15.57c.69.52,1.68.03,1.68-.83v.06c0,.61-.35,1.16-.89,1.42Z" fill="#007acc"/>
            <path d="M27.54,33.41c-.6.29-1.32.17-1.8-.31.58.58,1.58.17,1.58-.65V9.55c0-.82-1-1.24-1.58-.65.47-.47,1.19-.6,1.8-.31l5.21,2.5c.55.26.89.82.89,1.42v16.98c0,.61-.35,1.16-.89,1.42l-5.21,2.5Z" fill="#1f9cf0"/>
            <g mix-blend-mode="overlay" opacity=".25">
              <path d="M26.28,33.46c.4.16.85.15,1.25-.05l5.2-2.5c.55-.26.89-.82.89-1.42V12.51c0-.61-.35-1.16-.89-1.42l-5.2-2.5c-.53-.25-1.14-.19-1.61.14-.07.05-.13.1-.19.16l-9.96,9.09-4.34-3.29c-.4-.31-.97-.28-1.34.06l-1.39,1.27c-.46.42-.46,1.14,0,1.56l3.76,3.43-3.76,3.43c-.46.42-.46,1.14,0,1.56l1.39,1.27c.38.34.94.37,1.34.06l4.34-3.29,9.96,9.09c.16.16.34.28.54.35ZM27.31,15.26l-7.56,5.74,7.56,5.74v-11.47Z" fill="url(#f)" fill-rule="evenodd"/>
            </g>
          </g>
        </g>
      </g>
    </g>
  </g>
</svg>